<svg viewBox="0 0 80 80" xmlns="http://www.w3.org/2000/svg">
  <defs>
    <linearGradient id="logoGradient" x1="0%" y1="0%" x2="100%" y2="100%">
      <stop offset="0%" style="stop-color:#ff6b35;stop-opacity:1" />
      <stop offset="50%" style="stop-color:#f7931e;stop-opacity:1" />
      <stop offset="100%" style="stop-color:#ffd23f;stop-opacity:1" />
    </linearGradient>
    <filter id="shadow" x="-20%" y="-20%" width="140%" height="140%">
      <feDropShadow dx="2" dy="4" stdDeviation="3" flood-color="#00000020"/>
    </filter>
  </defs>
  
  <!-- Circular background -->
  <circle cx="40" cy="40" r="35" fill="url(#logoGradient)" filter="url(#shadow)"/>
  
  <!-- Modern building/towers design -->
  <g transform="translate(40, 40)">
    <!-- Central tower -->
    <rect x="-8" y="-30" width="16" height="40" fill="#ffffff" opacity="0.95" rx="1"/>
    <rect x="-7" y="-29" width="14" height="38" fill="none" stroke="#2563eb" stroke-width="0.5" opacity="0.3" rx="1"/>
    
    <!-- Left tower -->
    <rect x="-26" y="-18" width="14" height="28" fill="#ffffff" opacity="0.9" rx="1"/>
    <rect x="-25" y="-17" width="12" height="26" fill="none" stroke="#2563eb" stroke-width="0.5" opacity="0.3" rx="1"/>
    
    <!-- Right tower -->
    <rect x="12" y="-24" width="14" height="34" fill="#ffffff" opacity="0.9" rx="1"/>
    <rect x="13" y="-23" width="12" height="32" fill="none" stroke="#2563eb" stroke-width="0.5" opacity="0.3" rx="1"/>
    
    <!-- Windows on central tower - more organized grid -->
    <rect x="-6" y="-26" width="3" height="3" fill="#2563eb" opacity="0.6" rx="0.5"/>
    <rect x="3" y="-26" width="3" height="3" fill="#2563eb" opacity="0.6" rx="0.5"/>
    <rect x="-6" y="-20" width="3" height="3" fill="#2563eb" opacity="0.6" rx="0.5"/>
    <rect x="3" y="-20" width="3" height="3" fill="#2563eb" opacity="0.6" rx="0.5"/>
    <rect x="-6" y="-14" width="3" height="3" fill="#2563eb" opacity="0.6" rx="0.5"/>
    <rect x="3" y="-14" width="3" height="3" fill="#2563eb" opacity="0.6" rx="0.5"/>
    <rect x="-6" y="-8" width="3" height="3" fill="#2563eb" opacity="0.6" rx="0.5"/>
    <rect x="3" y="-8" width="3" height="3" fill="#2563eb" opacity="0.6" rx="0.5"/>
    
    <!-- Windows on left tower -->
    <rect x="-23" y="-14" width="2.5" height="2.5" fill="#2563eb" opacity="0.6" rx="0.5"/>
    <rect x="-18" y="-14" width="2.5" height="2.5" fill="#2563eb" opacity="0.6" rx="0.5"/>
    <rect x="-23" y="-9" width="2.5" height="2.5" fill="#2563eb" opacity="0.6" rx="0.5"/>
    <rect x="-18" y="-9" width="2.5" height="2.5" fill="#2563eb" opacity="0.6" rx="0.5"/>
    <rect x="-23" y="-4" width="2.5" height="2.5" fill="#2563eb" opacity="0.6" rx="0.5"/>
    <rect x="-18" y="-4" width="2.5" height="2.5" fill="#2563eb" opacity="0.6" rx="0.5"/>
    
    <!-- Windows on right tower -->
    <rect x="15" y="-20" width="2.5" height="2.5" fill="#2563eb" opacity="0.6" rx="0.5"/>
    <rect x="20" y="-20" width="2.5" height="2.5" fill="#2563eb" opacity="0.6" rx="0.5"/>
    <rect x="15" y="-15" width="2.5" height="2.5" fill="#2563eb" opacity="0.6" rx="0.5"/>
    <rect x="20" y="-15" width="2.5" height="2.5" fill="#2563eb" opacity="0.6" rx="0.5"/>
    <rect x="15" y="-10" width="2.5" height="2.5" fill="#2563eb" opacity="0.6" rx="0.5"/>
    <rect x="20" y="-10" width="2.5" height="2.5" fill="#2563eb" opacity="0.6" rx="0.5"/>
    <rect x="15" y="-5" width="2.5" height="2.5" fill="#2563eb" opacity="0.6" rx="0.5"/>
    <rect x="20" y="-5" width="2.5" height="2.5" fill="#2563eb" opacity="0.6" rx="0.5"/>
    
    <!-- Building tops/roofs -->
    <rect x="-8" y="-32" width="16" height="2" fill="#1e40af" opacity="0.8" rx="1"/>
    <rect x="-26" y="-20" width="14" height="2" fill="#1e40af" opacity="0.8" rx="1"/>
    <rect x="12" y="-26" width="14" height="2" fill="#1e40af" opacity="0.8" rx="1"/>
    
    <!-- Base/ground level -->
    <rect x="-28" y="10" width="56" height="3" fill="#374151" opacity="0.7" rx="1"/>
  </g>
</svg>